<?xml version="1.0" encoding="utf-8"?>
<!DOCTYPE svg PUBLIC "-//W3C//DTD SVG 1.1//EN" "http://www.w3.org/Graphics/SVG/1.1/DTD/svg11.dtd">
<svg version="1.1" id="图形" xmlns="http://www.w3.org/2000/svg" xmlns:xlink="http://www.w3.org/1999/xlink" x="0px" y="0px" width="1024px" height="1024px" viewBox="0 0 1024 1024" enable-background="new 0 0 1024 1024" xml:space="preserve">
  <path fill="#272636" d="M960.512 144.352q0-19.456 1.536-33.792t8.192-23.552 19.456-13.824 34.304-4.608q-3.072-25.6-15.36-45.056-11.264-17.408-33.28-30.72t-64-13.312q-31.744 0-53.76 10.752t-35.84 27.648-20.48 38.912-6.656 45.568l0 287.744q0 56.32-21.504 83.968t-67.584 27.648q-58.368 0-82.432-33.28t-24.064-103.936l0-380.928-165.888 0 0 406.528q0 56.32-21.504 83.968t-68.608 27.648q-56.32 0-80.896-33.28t-24.576-103.936l0-380.928-165.888 0 0 423.936q0 46.08-13.824 64t-57.856 18.944q3.072 27.648 18.432 47.104 2.048 4.096 6.144 8.192 6.144 7.168 22.528 17.408l1.024 1.024q11.264 6.144 27.136 11.264t38.4 5.12q37.888 0 60.416-9.216t34.816-20.48q14.336-13.312 19.456-29.696 59.392 67.584 172.032 67.584 121.856 0 174.08-81.92 32.768 39.936 78.848 60.416t101.376 20.48q108.544 0 157.184-52.224t48.64-163.84l0-227.328z" transform="translate(0, 812) scale(1, -1)"/>
</svg>
